<svg height="1481.248" viewBox="0 0 1575.588 1481.248" width="1575.588" xmlns="http://www.w3.org/2000/svg"><g transform="translate(-2251.165 -951.876)"><path d="m2387.342 1972.053c7.964-6.569 14.979-14.53 19.2-23.95 7.7-17.186 5.2-37.8-3.573-54.462s-23.185-29.767-38.914-40.124c-9.146-6.023-18.982-11.3-29.675-13.663-52.1-11.532-95.99 53.627-79.806 100.689 18.626 54.163 92.006 65.136 132.768 31.51z" fill="#79b782"/><g fill="#e57a44"><path d="m3816.392 1385.1c26.944-105.532.851-246.772-72.59-328.833-63.877-71.374-160.016-105.387-254.425-104.365a402.947 402.947 0 0 0 -156.321 33.608c-16.071 7.016-31.69 15.055-46.166 24.995-34.315 23.564-62.451 59.593-66.465 101.026-3.566 36.82 15.593 78.29 51.206 91.905 34.008 13 70.567 3.233 105.358 10.144 34.354 6.823 61.716 33.861 77.874 63.8 17.842 33.059 24.894 70.652 33.443 107.232 20.742 88.755 76.319 169.555 179.4 151.073 56.689-10.164 105.083-51.583 131-103.014a234.363 234.363 0 0 0 17.686-47.571z" opacity=".5"/><path d="m3146.694 2346.838c-27.215-22.333-73.333-25.1-100.289-3.706-7.335 5.823-14.233 13.347-15.388 22.64-1.2 9.629 4.038 18.868 10.012 26.518 28.71 36.763 137.016 72.891 127.121-7.388-1.96-15.902-10.05-28.702-21.456-38.064z"/></g></g></svg>