<svg xmlns="http://www.w3.org/2000/svg" width="87.272" height="16.338" viewBox="0 0 87.272 16.338">
  <g id="Group_439" data-name="Group 439" transform="translate(-3286.06 -741.014)">
    <path id="Path_810" data-name="Path 810" d="M3367.024,742.732c-.266-.033-2.466-.06-2.748-.081-20.828-1.537-36.549-1.421-57.457-1.621-9.438-.089-20.512-.1-20.755,8.522a5.445,5.445,0,0,0,3.342,5.591,16.336,16.336,0,0,0,6.082,1.726c17.972,1.256,36.048-.293,53.964-.636,3.934-.076,13.72-.024,17.458-.9C3373.754,753.737,3374.95,743.72,3367.024,742.732Z" fill="#e17a44"/>
    <text id="SUCCESS_STORY" data-name="SUCCESS STORY" transform="translate(3291.332 745.433)" fill="#fff" font-size="9.039" font-family="MaaxRounded-Medium, Maax Rounded" font-weight="500"><tspan x="0" y="7">SUCCESS STORY</tspan></text>
  </g>
</svg>
